<?xml version="1.0" encoding="utf-8"?>
<!-- Generator: Adobe Illustrator 25.0.0, SVG Export Plug-In . SVG Version: 6.00 Build 0)  -->
<svg version="1.1" id="Layer_1" xmlns="http://www.w3.org/2000/svg" xmlns:xlink="http://www.w3.org/1999/xlink" x="0px" y="0px"
	 viewBox="0 0 97.7 115.71" style="enable-background:new 0 0 97.7 115.71;" xml:space="preserve">
<style type="text/css">
	.st0{fill:#0179B6;}
	.st1{fill:#020203;}
	.st2{fill:#44AE56;}
	.st3{fill:#FFFFFF;}
</style>
<g>
	<g>
		<path class="st0" d="M36.95,75.12L18.72,88.79c2.79,1.59,5.81,2.82,8.99,3.64c2.95,0.76,6.05,1.16,9.24,1.16
			c3.19,0,6.29-0.4,9.24-1.16c3.18-0.82,6.2-2.05,8.99-3.64L36.95,75.12z"/>
		<path class="st1" d="M68.47,12.71c-3.05-4.98-7.25-9.18-12.23-12.23C55.98,0.32,55.7,0.16,55.43,0v61.26L36.95,47.41L18.48,61.26
			V0c-0.27,0.16-0.55,0.32-0.82,0.49C12.68,3.54,8.48,7.74,5.43,12.71C1.99,18.33,0,24.94,0,32.01v24.63c0,4.4,0.77,8.62,2.18,12.53
			c0.41,1.12,0.86,2.22,1.37,3.29c2.07,4.36,4.96,8.25,8.48,11.47c0.13,0.12,0.26,0.23,0.39,0.35l24.53-18.4l24.52,18.39l0.01,0.01
			l0,0l0,0l0,0c0.13-0.12,0.26-0.23,0.39-0.35c3.52-3.22,6.42-7.11,8.48-11.47c0.51-1.07,0.96-2.17,1.37-3.29
			c1.41-3.91,2.18-8.13,2.18-12.53V32.01C73.9,24.94,71.92,18.33,68.47,12.71z"/>
	</g>
	<g>
		
			<rect x="66" y="84.01" transform="matrix(-1.836970e-16 1 -1 -1.836970e-16 181.7166 28.8323)" class="st2" width="20.88" height="42.52"/>
		<g>
			<path class="st3" d="M68.43,110.07h-1.52l-0.26-1.74H64.8l-0.26,1.74h-1.38l1.53-9.59h2.21L68.43,110.07z M64.99,107.03h1.45
				l-0.73-4.85L64.99,107.03z"/>
			<path class="st3" d="M69.13,100.48h1.51v8.22h2.48v1.37h-3.99V100.48z"/>
			<path class="st3" d="M75.99,100.48c0.76,0,1.32,0.2,1.69,0.6c0.37,0.4,0.55,0.99,0.55,1.77v1.25c0,0.78-0.18,1.37-0.55,1.77
				c-0.37,0.4-0.93,0.6-1.69,0.6h-0.71v3.6h-1.51v-9.59H75.99z M75.28,101.85v3.25h0.71c0.24,0,0.42-0.06,0.55-0.19
				c0.13-0.13,0.19-0.37,0.19-0.71v-1.44c0-0.35-0.06-0.58-0.19-0.71c-0.13-0.13-0.31-0.19-0.55-0.19H75.28z"/>
			<path class="st3" d="M80.51,110.07H79v-9.59h1.51v4.11h1.71v-4.11h1.53v9.59h-1.53v-4.11h-1.71V110.07z"/>
			<path class="st3" d="M89.73,110.07h-1.52l-0.26-1.74H86.1l-0.26,1.74h-1.38l1.53-9.59h2.21L89.73,110.07z M86.29,107.03h1.45
				l-0.73-4.85L86.29,107.03z"/>
		</g>
	</g>
</g>
</svg>
